<?xml version="1.0" standalone="no"?>
<!DOCTYPE svg PUBLIC "-//W3C//DTD SVG 1.1//EN" "http://www.w3.org/Graphics/SVG/1.1/DTD/svg11.dtd">
<svg id="Vector_Logo_TextOnly" viewBox="0 0 190 27" style="background-color:#ffffff00" version="1.1"
	xmlns="http://www.w3.org/2000/svg" xmlns:xlink="http://www.w3.org/1999/xlink" xml:space="preserve"
	x="0px" y="0px" width="190px" height="27px"
>
	<g>
		<path d="M 6.1913 20.4764 L 6.1913 8.2941 C 6.1913 7.8179 6.0256 7.4126 5.6944 7.0784 C 5.363 6.7442 4.9572 6.5771 4.4851 6.5771 C 4.0129 6.5771 3.6112 6.7442 3.2799 7.0784 C 2.9486 7.4126 2.783 7.8179 2.783 8.2941 L 2.783 20.4764 C 2.783 20.9569 2.9486 21.3621 3.2799 21.6963 C 3.6112 22.0306 4.0129 22.1977 4.4851 22.1977 C 4.9572 22.1977 5.363 22.0306 5.6944 21.6963 C 6.0256 21.3621 6.1913 20.9569 6.1913 20.4764 L 6.1913 20.4764 Z" fill="#ff9001"/>
		<path d="M 19.5471 15.6052 C 19.8784 15.9394 20.2801 16.1065 20.7564 16.1065 L 34.2158 16.1065 C 34.547 16.1065 34.8121 16.2402 35.015 16.5034 C 35.2138 16.7666 35.3173 17.0758 35.3173 17.4309 C 35.3173 17.7901 35.2014 18.1035 34.9777 18.3667 C 34.7541 18.6299 34.4973 18.7594 34.2158 18.7594 L 16.9878 18.7594 C 16.1595 18.7594 15.4886 18.6132 14.9834 18.3124 C 14.474 18.0116 14.0722 17.6481 13.7741 17.2178 C 13.4759 16.7917 13.2771 16.3196 13.1694 15.8057 C 13.0618 15.2919 13.0121 14.8198 13.0121 14.3853 C 13.0121 13.9592 13.0618 13.487 13.1694 12.9732 C 13.2771 12.4594 13.4759 11.9872 13.7741 11.5569 C 14.0722 11.1308 14.474 10.7674 14.9834 10.4665 C 15.4886 10.1658 16.1595 10.0153 16.9878 10.0153 L 36.9159 10.0153 C 37.388 10.0153 37.7898 9.8482 38.121 9.514 C 38.4523 9.1798 38.618 8.7746 38.618 8.2941 C 38.618 7.8179 38.4523 7.4126 38.121 7.0784 C 37.7898 6.7442 37.388 6.5771 36.9159 6.5771 L 16.2092 6.5771 C 15.1904 6.5771 14.2752 6.8194 13.4718 7.2957 C 12.6684 7.7719 11.9809 8.386 11.4135 9.138 C 10.842 9.89 10.4113 10.7255 10.1173 11.6447 C 9.8191 12.5638 9.6741 13.4787 9.6741 14.3853 C 9.6741 15.271 9.815 16.1817 10.1007 17.1134 C 10.3823 18.045 10.7923 18.8847 11.3266 19.6367 C 11.8567 20.3887 12.5027 21.007 13.2606 21.4833 C 14.0143 21.9595 14.8798 22.1977 15.853 22.1977 L 34.3566 22.1977 C 34.9488 22.1977 35.5037 22.0849 36.0255 21.8593 C 36.5473 21.6337 37.0029 21.3204 37.3922 20.9277 C 37.7815 20.5349 38.0838 20.0671 38.2991 19.5281 C 38.5103 18.9934 38.618 18.4252 38.618 17.8278 L 38.618 17.0381 C 38.618 16.4449 38.5103 15.8768 38.2991 15.3378 C 38.0838 14.8031 37.7815 14.3352 37.3922 13.9424 C 37.0029 13.5497 36.5473 13.2364 36.0255 13.0108 C 35.5037 12.7852 34.9488 12.6683 34.3566 12.6683 L 20.7564 12.6683 C 20.2801 12.6683 19.8784 12.8354 19.5471 13.1695 C 19.2158 13.5038 19.0501 13.909 19.0501 14.3853 C 19.0501 14.8657 19.2158 15.271 19.5471 15.6052 L 19.5471 15.6052 Z" fill="#ff9001"/>
		<path d="M 65.4001 14.3853 L 65.4001 20.4764 C 65.4001 20.9569 65.5657 21.3621 65.897 21.6963 C 66.2284 22.0306 66.6301 22.1977 67.1063 22.1977 C 67.5785 22.1977 67.9801 22.0306 68.3114 21.6963 C 68.6427 21.3621 68.8084 20.9569 68.8084 20.4764 L 68.8084 14.3853 C 68.8084 13.5038 68.6634 12.6097 68.3819 11.699 C 68.1002 10.7924 67.6903 9.9694 67.1601 9.2299 C 66.6259 8.4905 65.9798 7.8763 65.222 7.3834 C 64.4641 6.8945 63.5986 6.6272 62.6295 6.5771 L 47.7497 6.5771 C 46.7309 6.5771 45.8157 6.8194 45.0123 7.2957 C 44.2088 7.7719 43.5214 8.386 42.954 9.138 C 42.3825 9.89 41.9518 10.7255 41.6577 11.6447 C 41.3596 12.5638 41.2147 13.4787 41.2147 14.3853 L 41.2147 20.4764 C 41.2147 20.9569 41.3803 21.3621 41.7116 21.6963 C 42.0429 22.0306 42.4446 22.1977 42.9167 22.1977 C 43.3889 22.1977 43.7947 22.0306 44.126 21.6963 C 44.4573 21.3621 44.623 20.9569 44.623 20.4764 L 44.623 14.3853 C 44.623 13.9592 44.6726 13.487 44.7803 12.9732 C 44.888 12.4594 45.0868 11.9872 45.3849 11.5569 C 45.6831 11.1308 46.0849 10.7674 46.5942 10.4665 C 47.0995 10.1658 47.7704 10.0153 48.6028 10.0153 L 61.4244 10.0153 C 62.2278 10.0153 62.8863 10.1658 63.4081 10.4665 C 63.9299 10.7674 64.3357 11.1308 64.6339 11.5569 C 64.9321 11.9872 65.1309 12.4594 65.2386 12.9732 C 65.3462 13.487 65.4001 13.9592 65.4001 14.3853 L 65.4001 14.3853 Z" fill="#ff9001"/>
		<path d="M 75.3683 20.4764 L 75.3683 8.2941 C 75.3683 7.8179 75.2026 7.4126 74.8713 7.0784 C 74.54 6.7442 74.1341 6.5771 73.662 6.5771 C 73.1899 6.5771 72.7882 6.7442 72.4569 7.0784 C 72.1256 7.4126 71.96 7.8179 71.96 8.2941 L 71.96 20.4764 C 71.96 20.9569 72.1256 21.3621 72.4569 21.6963 C 72.7882 22.0306 73.1899 22.1977 73.662 22.1977 C 74.1341 22.1977 74.54 22.0306 74.8713 21.6963 C 75.2026 21.3621 75.3683 20.9569 75.3683 20.4764 L 75.3683 20.4764 Z" fill="#ff9001"/>
		<path d="M 80.2882 6.5771 C 79.8161 6.5771 79.4144 6.7442 79.0831 7.0784 C 78.7518 7.4126 78.5861 7.8179 78.5861 8.2941 C 78.5861 8.7746 78.7518 9.1798 79.0831 9.514 C 79.4144 9.8482 79.8161 10.0153 80.2882 10.0153 L 91.9378 10.0153 C 91.5568 10.6838 91.2752 11.3982 91.0847 12.1502 C 90.8941 12.9022 90.8031 13.65 90.8031 14.3853 L 90.8031 20.4764 C 90.8031 20.9569 90.9687 21.3621 91.3001 21.6963 C 91.6313 22.0306 92.0331 22.1977 92.5093 22.1977 C 92.9815 22.1977 93.3831 22.0306 93.7144 21.6963 C 94.0457 21.3621 94.2114 20.9569 94.2114 20.4764 L 94.2114 14.3853 C 94.2114 13.9842 94.2569 13.5289 94.3522 13.0275 C 94.4475 12.5262 94.6255 12.0583 94.8864 11.628 C 95.1473 11.2019 95.5076 10.8384 95.9714 10.5376 C 96.4311 10.2368 97.0151 10.0655 97.7274 10.0153 L 104.8671 10.0153 C 105.2895 9.9694 105.658 9.7856 105.9645 9.4597 C 106.271 9.138 106.4284 8.7495 106.4284 8.2941 C 106.4284 7.8179 106.2627 7.4126 105.9314 7.0784 C 105.6001 6.7442 105.1984 6.5771 104.7263 6.5771 L 80.2882 6.5771 L 80.2882 6.5771 Z" fill="#ff9001"/>
		<path d="M 134.7261 12.6683 L 117.0385 12.6683 C 116.5622 12.6683 116.1605 12.8354 115.8292 13.1695 C 115.4979 13.5038 115.3323 13.909 115.3323 14.3853 C 115.3323 14.8657 115.4979 15.271 115.8292 15.6052 C 116.1605 15.9394 116.5622 16.1065 117.0385 16.1065 L 134.7261 16.1065 C 135.1983 16.1065 135.6 15.9394 135.9313 15.6052 C 136.2626 15.271 136.4283 14.8657 136.4283 14.3853 C 136.4283 13.909 136.2626 13.5038 135.9313 13.1695 C 135.6 12.8354 135.1983 12.6683 134.7261 12.6683 L 134.7261 12.6683 ZM 136.217 10.0153 C 136.6891 10.0153 137.0909 9.8482 137.4222 9.514 C 137.7535 9.1798 137.9191 8.7746 137.9191 8.2941 C 137.9191 7.8179 137.7535 7.4126 137.4222 7.0784 C 137.0909 6.7442 136.6891 6.5771 136.217 6.5771 L 115.8665 6.5771 C 114.8477 6.5771 113.9325 6.8194 113.1291 7.2957 C 112.3256 7.7719 111.6382 8.386 111.0708 9.138 C 110.4993 9.89 110.0686 10.7255 109.7746 11.6447 C 109.4764 12.5638 109.3314 13.4787 109.3314 14.3853 C 109.3314 15.271 109.4723 16.1817 109.758 17.1134 C 110.0396 18.045 110.4496 18.8847 110.9839 19.6367 C 111.5139 20.3887 112.16 21.007 112.9179 21.4833 C 113.6716 21.9595 114.5371 22.1977 115.5103 22.1977 L 136.217 22.1977 C 136.6891 22.1977 137.0909 22.0306 137.4222 21.6963 C 137.7535 21.3621 137.9191 20.9569 137.9191 20.4764 C 137.9191 20.0002 137.7535 19.5949 137.4222 19.2607 C 137.0909 18.9265 136.6891 18.7594 136.217 18.7594 L 116.6451 18.7594 C 115.8168 18.7594 115.1459 18.6132 114.6406 18.3124 C 114.1312 18.0116 113.7296 17.6481 113.4314 17.2178 C 113.1332 16.7917 112.9344 16.3196 112.8267 15.8057 C 112.7191 15.2919 112.6694 14.8198 112.6694 14.3853 C 112.6694 13.9592 112.7191 13.487 112.8267 12.9732 C 112.9344 12.4594 113.1332 11.9872 113.4314 11.5569 C 113.7296 11.1308 114.1312 10.7674 114.6406 10.4665 C 115.1459 10.1658 115.8168 10.0153 116.6451 10.0153 L 136.217 10.0153 L 136.217 10.0153 Z" fill="#ff9001"/>
		<path d="M 145.0754 14.3853 L 145.0754 8.2941 C 145.0754 7.8179 144.9098 7.4126 144.5784 7.0784 C 144.2471 6.7442 143.8412 6.5771 143.3692 6.5771 C 142.897 6.5771 142.4953 6.7442 142.1641 7.0784 C 141.8327 7.4126 141.6671 7.8179 141.6671 8.2941 L 141.6671 14.3853 C 141.6671 15.271 141.8079 16.1692 142.0936 17.0758 C 142.3752 17.9823 142.7852 18.8053 143.3195 19.5448 C 143.8495 20.2885 144.4956 20.9026 145.2535 21.3914 C 146.0072 21.8843 146.8727 22.1517 147.8459 22.1977 L 164.0428 22.1977 C 165.0574 22.1977 165.9684 21.9595 166.776 21.4833 C 167.5795 21.007 168.2669 20.3887 168.8343 19.6367 C 169.4016 18.8847 169.8323 18.0492 170.1305 17.1301 C 170.4287 16.2109 170.5778 15.296 170.5778 14.3853 L 170.5778 8.2941 C 170.5778 7.8179 170.4121 7.4126 170.0808 7.0784 C 169.7495 6.7442 169.3437 6.5771 168.8716 6.5771 C 168.3953 6.5771 167.9936 6.7442 167.6623 7.0784 C 167.3309 7.4126 167.1653 7.8179 167.1653 8.2941 L 167.1653 14.3853 C 167.1653 14.8198 167.1115 15.2919 167.0038 15.8057 C 166.8962 16.3196 166.6973 16.7917 166.4034 17.2178 C 166.1051 17.6481 165.6993 18.0116 165.1775 18.3124 C 164.6557 18.6132 163.993 18.7594 163.1896 18.7594 L 149.0552 18.7594 C 148.2228 18.7594 147.5519 18.6132 147.0467 18.3124 C 146.5373 18.0116 146.1355 17.6481 145.8374 17.2178 C 145.5392 16.7917 145.3405 16.3196 145.2328 15.8057 C 145.1251 15.2919 145.0754 14.8198 145.0754 14.3853 L 145.0754 14.3853 Z" fill="#ffffff"/>
		<path d="M 177.9411 20.4764 L 177.9411 8.2941 C 177.9411 7.8179 177.7754 7.4126 177.4441 7.0784 C 177.1128 6.7442 176.707 6.5771 176.2349 6.5771 C 175.7627 6.5771 175.361 6.7442 175.0298 7.0784 C 174.6984 7.4126 174.5327 7.8179 174.5327 8.2941 L 174.5327 20.4764 C 174.5327 20.9569 174.6984 21.3621 175.0298 21.6963 C 175.361 22.0306 175.7627 22.1977 176.2349 22.1977 C 176.707 22.1977 177.1128 22.0306 177.4441 21.6963 C 177.7754 21.3621 177.9411 20.9569 177.9411 20.4764 L 177.9411 20.4764 Z" fill="#ffffff"/>
		<g>
			<path d="M 180.6907 6.2704 L 181.1712 6.2704 L 181.1712 3.3203 L 182.2372 3.3203 L 182.2372 2.8286 L 179.6246 2.8286 L 179.6246 3.3203 L 180.6907 3.3203 L 180.6907 6.2704 L 180.6907 6.2704 Z" fill="#ffffff"/>
			<path d="M 182.8288 6.2704 L 183.3094 6.2704 L 183.3094 3.8119 L 184.3754 5.4253 L 184.3942 5.4253 L 185.4716 3.8004 L 185.4716 6.2704 L 185.9521 6.2704 L 185.9521 2.8286 L 185.3589 2.8286 L 184.3904 4.4573 L 183.422 2.8286 L 182.8288 2.8286 L 182.8288 6.2704 L 182.8288 6.2704 Z" fill="#ffffff"/>
		</g>
	</g>
</svg>