<?xml version="1.0" standalone="no"?>
<!DOCTYPE svg PUBLIC "-//W3C//DTD SVG 1.1//EN" "http://www.w3.org/Graphics/SVG/1.1/DTD/svg11.dtd">
<svg id="Vector_Logo_TextOnly" viewBox="0 0 300 42" style="background-color:#ffffff00" version="1.1"
	xmlns="http://www.w3.org/2000/svg" xmlns:xlink="http://www.w3.org/1999/xlink" xml:space="preserve"
	x="0px" y="0px" width="300px" height="42px"
>
	<g>
		<path d="M 9.7757 31.8522 L 9.7757 12.9019 C 9.7757 12.1612 9.5141 11.5307 8.9911 11.0109 C 8.4679 10.491 7.8271 10.231 7.0817 10.231 C 6.3362 10.231 5.7019 10.491 5.1788 11.0109 C 4.6557 11.5307 4.3941 12.1612 4.3941 12.9019 L 4.3941 31.8522 C 4.3941 32.5996 4.6557 33.2299 5.1788 33.7499 C 5.7019 34.2698 6.3362 34.5298 7.0817 34.5298 C 7.8271 34.5298 8.4679 34.2698 8.9911 33.7499 C 9.5141 33.2299 9.7757 32.5996 9.7757 31.8522 L 9.7757 31.8522 Z" fill="#ff9001"/>
		<path d="M 30.8638 24.2747 C 31.387 24.7946 32.0213 25.0546 32.7733 25.0546 L 54.0249 25.0546 C 54.548 25.0546 54.9665 25.2625 55.2869 25.6719 C 55.6008 26.0814 55.7642 26.5623 55.7642 27.1147 C 55.7642 27.6735 55.5812 28.161 55.228 28.5704 C 54.8749 28.9798 54.4695 29.1813 54.0249 29.1813 L 26.8228 29.1813 C 25.5151 29.1813 24.4557 28.9538 23.658 28.4859 C 22.8536 28.018 22.2193 27.4526 21.7485 26.7833 C 21.2778 26.1204 20.9639 25.3861 20.7938 24.5866 C 20.6239 23.7873 20.5453 23.053 20.5453 22.3771 C 20.5453 21.7143 20.6239 20.9798 20.7938 20.1805 C 20.9639 19.3812 21.2778 18.6468 21.7485 17.9775 C 22.2193 17.3146 22.8536 16.7492 23.658 16.2813 C 24.4557 15.8135 25.5151 15.5794 26.8228 15.5794 L 58.2882 15.5794 C 59.0337 15.5794 59.668 15.3194 60.1911 14.7996 C 60.7142 14.2797 60.9758 13.6493 60.9758 12.9019 C 60.9758 12.1612 60.7142 11.5307 60.1911 11.0109 C 59.668 10.491 59.0337 10.231 58.2882 10.231 L 25.5935 10.231 C 23.9849 10.231 22.5398 10.6079 21.2713 11.3488 C 20.0027 12.0897 18.9172 13.045 18.0213 14.2147 C 17.119 15.3845 16.4389 16.6842 15.9747 18.114 C 15.5039 19.5437 15.275 20.9669 15.275 22.3771 C 15.275 23.7548 15.4973 25.1716 15.9484 26.6208 C 16.3931 28.07 17.0405 29.3762 17.884 30.546 C 18.721 31.7158 19.7411 32.6776 20.9378 33.4184 C 22.1279 34.1593 23.4945 34.5298 25.0311 34.5298 L 54.2472 34.5298 C 55.1823 34.5298 56.0585 34.3542 56.8824 34.0033 C 57.7062 33.6524 58.4256 33.165 59.0402 32.5541 C 59.6549 31.9432 60.1323 31.2154 60.4723 30.377 C 60.8057 29.5452 60.9758 28.6614 60.9758 27.7321 L 60.9758 26.5038 C 60.9758 25.581 60.8057 24.6972 60.4723 23.8588 C 60.1323 23.027 59.6549 22.2992 59.0402 21.6883 C 58.4256 21.0774 57.7062 20.5899 56.8824 20.239 C 56.0585 19.8881 55.1823 19.7062 54.2472 19.7062 L 32.7733 19.7062 C 32.0213 19.7062 31.387 19.9661 30.8638 20.486 C 30.3408 21.0059 30.0792 21.6362 30.0792 22.3771 C 30.0792 23.1244 30.3408 23.7548 30.8638 24.2747 L 30.8638 24.2747 Z" fill="#ff9001"/>
		<path d="M 103.2633 22.3771 L 103.2633 31.8522 C 103.2633 32.5996 103.5248 33.2299 104.0479 33.7499 C 104.5711 34.2698 105.2054 34.5298 105.9573 34.5298 C 106.7028 34.5298 107.337 34.2698 107.8602 33.7499 C 108.3833 33.2299 108.6448 32.5996 108.6448 31.8522 L 108.6448 22.3771 C 108.6448 21.0059 108.416 19.6151 107.9713 18.1985 C 107.5267 16.7882 106.8793 15.5079 106.0423 14.3577 C 105.1987 13.2075 104.1787 12.2521 102.9821 11.4853 C 101.7855 10.7248 100.4188 10.309 98.8887 10.231 L 75.3942 10.231 C 73.7857 10.231 72.3405 10.6079 71.072 11.3488 C 69.8034 12.0897 68.7179 13.045 67.8221 14.2147 C 66.9197 15.3845 66.2396 16.6842 65.7754 18.114 C 65.3046 19.5437 65.0758 20.9669 65.0758 22.3771 L 65.0758 31.8522 C 65.0758 32.5996 65.3373 33.2299 65.8604 33.7499 C 66.3835 34.2698 67.0178 34.5298 67.7633 34.5298 C 68.5087 34.5298 69.1495 34.2698 69.6726 33.7499 C 70.1958 33.2299 70.4573 32.5996 70.4573 31.8522 L 70.4573 22.3771 C 70.4573 21.7143 70.5358 20.9798 70.7057 20.1805 C 70.8758 19.3812 71.1896 18.6468 71.6604 17.9775 C 72.1312 17.3146 72.7656 16.7492 73.5698 16.2813 C 74.3676 15.8135 75.4269 15.5794 76.7413 15.5794 L 96.9859 15.5794 C 98.2544 15.5794 99.2942 15.8135 100.118 16.2813 C 100.9419 16.7492 101.5827 17.3146 102.0535 17.9775 C 102.5244 18.6468 102.8383 19.3812 103.0083 20.1805 C 103.1783 20.9798 103.2633 21.7143 103.2633 22.3771 L 103.2633 22.3771 Z" fill="#ff9001"/>
		<path d="M 119.0025 31.8522 L 119.0025 12.9019 C 119.0025 12.1612 118.741 11.5307 118.2179 11.0109 C 117.6948 10.491 117.0539 10.231 116.3085 10.231 C 115.563 10.231 114.9288 10.491 114.4057 11.0109 C 113.8825 11.5307 113.621 12.1612 113.621 12.9019 L 113.621 31.8522 C 113.621 32.5996 113.8825 33.2299 114.4057 33.7499 C 114.9288 34.2698 115.563 34.5298 116.3085 34.5298 C 117.0539 34.5298 117.6948 34.2698 118.2179 33.7499 C 118.741 33.2299 119.0025 32.5996 119.0025 31.8522 L 119.0025 31.8522 Z" fill="#ff9001"/>
		<path d="M 126.7708 10.231 C 126.0254 10.231 125.3912 10.491 124.868 11.0109 C 124.3449 11.5307 124.0834 12.1612 124.0834 12.9019 C 124.0834 13.6493 124.3449 14.2797 124.868 14.7996 C 125.3912 15.3194 126.0254 15.5794 126.7708 15.5794 L 145.165 15.5794 C 144.5634 16.6193 144.1187 17.7305 143.818 18.9003 C 143.517 20.0701 143.3732 21.2333 143.3732 22.3771 L 143.3732 31.8522 C 143.3732 32.5996 143.6348 33.2299 144.158 33.7499 C 144.6811 34.2698 145.3154 34.5298 146.0673 34.5298 C 146.8128 34.5298 147.4471 34.2698 147.9701 33.7499 C 148.4933 33.2299 148.7549 32.5996 148.7549 31.8522 L 148.7549 22.3771 C 148.7549 21.7532 148.8267 21.0449 148.9772 20.265 C 149.1276 19.4852 149.4088 18.7573 149.8207 18.0879 C 150.2327 17.4251 150.8015 16.8597 151.5339 16.3918 C 152.2597 15.9239 153.1818 15.6574 154.3064 15.5794 L 165.5796 15.5794 C 166.2466 15.5079 166.8285 15.222 167.3124 14.7152 C 167.7963 14.2147 168.0448 13.6103 168.0448 12.9019 C 168.0448 12.1612 167.7832 11.5307 167.2601 11.0109 C 166.737 10.491 166.1027 10.231 165.3573 10.231 L 126.7708 10.231 L 126.7708 10.231 Z" fill="#ff9001"/>
		<path d="M 212.7255 19.7062 L 184.7977 19.7062 C 184.0457 19.7062 183.4114 19.9661 182.8883 20.486 C 182.3651 21.0059 182.1036 21.6362 182.1036 22.3771 C 182.1036 23.1244 182.3651 23.7548 182.8883 24.2747 C 183.4114 24.7946 184.0457 25.0546 184.7977 25.0546 L 212.7255 25.0546 C 213.471 25.0546 214.1053 24.7946 214.6283 24.2747 C 215.1515 23.7548 215.4131 23.1244 215.4131 22.3771 C 215.4131 21.6362 215.1515 21.0059 214.6283 20.486 C 214.1053 19.9661 213.471 19.7062 212.7255 19.7062 L 212.7255 19.7062 ZM 215.0795 15.5794 C 215.825 15.5794 216.4594 15.3194 216.9824 14.7996 C 217.5055 14.2797 217.7671 13.6493 217.7671 12.9019 C 217.7671 12.1612 217.5055 11.5307 216.9824 11.0109 C 216.4594 10.491 215.825 10.231 215.0795 10.231 L 182.9471 10.231 C 181.3385 10.231 179.8934 10.6079 178.6248 11.3488 C 177.3562 12.0897 176.2708 13.045 175.375 14.2147 C 174.4726 15.3845 173.7925 16.6842 173.3283 18.114 C 172.8575 19.5437 172.6286 20.9669 172.6286 22.3771 C 172.6286 23.7548 172.8509 25.1716 173.3021 26.6208 C 173.7468 28.07 174.3941 29.3762 175.2377 30.546 C 176.0746 31.7158 177.0948 32.6776 178.2914 33.4184 C 179.4814 34.1593 180.8481 34.5298 182.3847 34.5298 L 215.0795 34.5298 C 215.825 34.5298 216.4594 34.2698 216.9824 33.7499 C 217.5055 33.2299 217.7671 32.5996 217.7671 31.8522 C 217.7671 31.1114 217.5055 30.481 216.9824 29.9611 C 216.4594 29.4412 215.825 29.1813 215.0795 29.1813 L 184.1765 29.1813 C 182.8686 29.1813 181.8093 28.9538 181.0115 28.4859 C 180.2072 28.018 179.573 27.4526 179.1021 26.7833 C 178.6313 26.1204 178.3175 25.3861 178.1474 24.5866 C 177.9775 23.7873 177.899 23.053 177.899 22.3771 C 177.899 21.7143 177.9775 20.9798 178.1474 20.1805 C 178.3175 19.3812 178.6313 18.6468 179.1021 17.9775 C 179.573 17.3146 180.2072 16.7492 181.0115 16.2813 C 181.8093 15.8135 182.8686 15.5794 184.1765 15.5794 L 215.0795 15.5794 L 215.0795 15.5794 Z" fill="#ff9001"/>
		<path d="M 229.0665 22.3771 L 229.0665 12.9019 C 229.0665 12.1612 228.8049 11.5307 228.2817 11.0109 C 227.7586 10.491 227.1178 10.231 226.3724 10.231 C 225.6269 10.231 224.9926 10.491 224.4696 11.0109 C 223.9463 11.5307 223.6848 12.1612 223.6848 12.9019 L 223.6848 22.3771 C 223.6848 23.7548 223.9072 25.1521 224.3583 26.5623 C 224.803 27.9725 225.4503 29.2527 226.2939 30.403 C 227.1309 31.5598 228.151 32.5151 229.3476 33.2755 C 230.5377 34.0423 231.9043 34.4582 233.4409 34.5298 L 259.0149 34.5298 C 260.617 34.5298 262.0554 34.1593 263.3306 33.4184 C 264.5992 32.6776 265.6846 31.7158 266.5804 30.546 C 267.4763 29.3762 268.1563 28.0765 268.6271 26.6468 C 269.098 25.217 269.3333 23.7938 269.3333 22.3771 L 269.3333 12.9019 C 269.3333 12.1612 269.0717 11.5307 268.5487 11.0109 C 268.0255 10.491 267.3848 10.231 266.6393 10.231 C 265.8873 10.231 265.253 10.491 264.7299 11.0109 C 264.2068 11.5307 263.9452 12.1612 263.9452 12.9019 L 263.9452 22.3771 C 263.9452 23.053 263.8602 23.7873 263.6902 24.5866 C 263.5203 25.3861 263.2063 26.1204 262.7421 26.7833 C 262.2712 27.4526 261.6305 28.018 260.8065 28.4859 C 259.9827 28.9538 258.9364 29.1813 257.6678 29.1813 L 235.3504 29.1813 C 234.036 29.1813 232.9767 28.9538 232.179 28.4859 C 231.3747 28.018 230.7403 27.4526 230.2696 26.7833 C 229.7987 26.1204 229.4849 25.3861 229.3149 24.5866 C 229.1448 23.7873 229.0665 23.053 229.0665 22.3771 L 229.0665 22.3771 Z" fill="#ffffff"/>
		<path d="M 280.9596 31.8522 L 280.9596 12.9019 C 280.9596 12.1612 280.6981 11.5307 280.175 11.0109 C 279.6518 10.491 279.011 10.231 278.2656 10.231 C 277.5201 10.231 276.8858 10.491 276.3628 11.0109 C 275.8396 11.5307 275.578 12.1612 275.578 12.9019 L 275.578 31.8522 C 275.578 32.5996 275.8396 33.2299 276.3628 33.7499 C 276.8858 34.2698 277.5201 34.5298 278.2656 34.5298 C 279.011 34.5298 279.6518 34.2698 280.175 33.7499 C 280.6981 33.2299 280.9596 32.5996 280.9596 31.8522 L 280.9596 31.8522 Z" fill="#ffffff"/>
		<g>
			<path d="M 285.3011 9.7539 L 286.0598 9.7539 L 286.0598 5.1649 L 287.743 5.1649 L 287.743 4.4 L 283.6177 4.4 L 283.6177 5.1649 L 285.3011 5.1649 L 285.3011 9.7539 L 285.3011 9.7539 Z" fill="#ffffff"/>
			<path d="M 288.6771 9.7539 L 289.4359 9.7539 L 289.4359 5.9297 L 291.1191 8.4393 L 291.1488 8.4393 L 292.85 5.9118 L 292.85 9.7539 L 293.6085 9.7539 L 293.6085 4.4 L 292.672 4.4 L 291.1428 6.9336 L 289.6136 4.4 L 288.6771 4.4 L 288.6771 9.7539 L 288.6771 9.7539 Z" fill="#ffffff"/>
		</g>
	</g>
</svg>